<?xml version="1.0" encoding="UTF-8"?>
<svg width="286px" height="221px" viewBox="0 0 286 221" version="1.1" xmlns="http://www.w3.org/2000/svg" xmlns:xlink="http://www.w3.org/1999/xlink">
    <title>premium</title>
    <defs>
        <filter x="-50.8%" y="-71.1%" width="201.7%" height="242.2%" filterUnits="objectBoundingBox" id="filter-1">
            <feOffset dx="-16" dy="20" in="SourceAlpha" result="shadowOffsetOuter1"></feOffset>
            <feGaussianBlur stdDeviation="18.5" in="shadowOffsetOuter1" result="shadowBlurOuter1"></feGaussianBlur>
            <feColorMatrix values="0 0 0 0 0.411764706   0 0 0 0 0.470588235   0 0 0 0 0.521568627  0 0 0 0.4 0" type="matrix" in="shadowBlurOuter1" result="shadowMatrixOuter1"></feColorMatrix>
            <feMerge>
                <feMergeNode in="shadowMatrixOuter1"></feMergeNode>
                <feMergeNode in="SourceGraphic"></feMergeNode>
            </feMerge>
        </filter>
    </defs>
    <g id="Website-3.0" stroke="none" stroke-width="1" fill="none" fill-rule="evenodd">
        <g id="preços" transform="translate(-1039.000000, -179.000000)">
            <g id="premium" transform="translate(972.000000, 80.000000)">
                <g id="premium" transform="translate(119.000000, 113.000000)" filter="url(#filter-1)">
                    <g id="Group-155">
                        <path d="M167.229323,54.4471207 C165.86861,53.0129314 164.407103,51.4838261 162.895199,49.9172769 C162.895199,49.9172769 164.427088,46.4497955 168.848972,46.6492061 C172.306366,46.8050773 169.699635,52.3511318 167.229323,54.4471207" id="Fill-1" fill="#B3B7C4"></path>
                        <path d="M169.614656,46.8247572 C171.828639,47.7747879 169.480843,52.5371323 167.229497,54.4467724 C166.638638,53.8241583 166.020843,53.1762914 165.396966,52.5231997 C167.210381,50.818195 168.715334,48.4304919 169.614656,46.8247572" id="Fill-3" fill="#73758E"></path>
                        <path d="M15.3432159,75.0849917 L31.6900231,92.0322852 C31.6900231,92.0322852 34.6217261,92.2996174 40.2409682,89.7421104 C45.8610792,87.1846034 38.1851267,62.4350414 38.1851267,62.4350414 L19.7468527,54.0040633 L13.3360334,58.1707882 L10.7362542,65.307774 L15.3432159,75.0849917 Z" id="Fill-5" fill="#2D313F"></path>
                        <g id="Group-9" transform="translate(0.000000, 0.185478)" fill="#DCDFE5">
                            <path d="M33.8147692,42.045084 C52.5032893,37.8644265 73.5283089,48.9016758 87.0442067,60.9542649 C100.560105,73.0077248 106.305339,92.4655027 106.305339,92.4655027 L35.3171149,48.9016758 C35.3171149,48.9016758 33.9815999,43.8850609 33.8147692,42.045084 M114.242833,93.7176971 C114.242833,93.7176971 103.063435,72.4800267 97.7231128,65.1218605 C103.230266,63.1155629 136.769329,47.0625696 145.946759,36.8612777 C155.45785,45.5569756 170.642055,60.9542649 170.642055,60.9542649 C170.642055,60.9542649 174.480031,74.821578 147.949597,87.1954883 C121.418293,99.5702693 114.242833,93.7176971 114.242833,93.7176971 M0.831807714,60.1052457 C1.64423873,64.583713 10.580111,71.4951645 15.3434766,74.8990783 C15.2739638,74.4915491 15.2027132,74.0648625 15.1262491,73.5946365 C14.1808748,67.7420643 18.018851,54.6985174 30.3660647,64.0072507 C41.409913,72.3328634 40.5470852,86.6268631 40.2412289,89.556197 C67.0601415,104.971773 109.539422,129.373019 114.743325,132.268392 C113.019408,121.365245 117.423913,116.093489 123.086601,117.797622 C140.290154,122.973592 139.32827,146.726971 139.32827,146.726971 C146.22481,152.07884 166.442612,151.231562 172.226947,148.444167 C197.820696,136.113796 211.63463,126.549051 213.087448,120.86367 C215.054661,113.165896 213.637468,98.9015034 208.854118,88.6453518 C204.070767,78.3883294 176.149208,61.6665702 171.810739,57.8760261 C171.810739,57.8760261 155.902732,42.3794669 145.891149,33.7961008 C135.879565,25.2118638 99.5035098,8.71215583 89.9368087,7.15170213 C80.3701076,5.59037764 68.5781276,6.14768253 65.6863945,5.36745568 C62.7937925,4.58722883 57.8992215,2.69239219 52.670989,0.685223783 C30.0880134,3.91846295 3.9468507,26.6608566 2.94586618,29.5597128 C1.61035123,37.2513911 2.44450501,47.5632732 2.44450501,47.5632732 C2.44450501,47.5632732 0.887417965,48.7344843 0.386925702,49.3475197 C-0.11356656,49.9605551 -0.280397315,53.9740211 0.831807714,60.1052457" id="Fill-7"></path>
                        </g>
                        <g id="Group-12" transform="translate(0.000000, 0.185478)" fill="#DCDFE5">
                            <path d="M33.8147692,42.045084 C52.5032893,37.8644265 73.5283089,48.9016758 87.0442067,60.9542649 C100.560105,73.0077248 106.305339,92.4655027 106.305339,92.4655027 L35.3171149,48.9016758 C35.3171149,48.9016758 33.9815999,43.8850609 33.8147692,42.045084 M114.242833,93.7176971 C114.242833,93.7176971 103.063435,72.4800267 97.7231128,65.1218605 C103.230266,63.1155629 136.769329,47.0625696 145.946759,36.8612777 C155.45785,45.5569756 170.642055,60.9542649 170.642055,60.9542649 C170.642055,60.9542649 174.480031,74.821578 147.949597,87.1954883 C121.418293,99.5702693 114.242833,93.7176971 114.242833,93.7176971 M0.831807714,60.1052457 C1.64423873,64.583713 10.580111,71.4951645 15.3434766,74.8990783 C15.2739638,74.4915491 15.2027132,74.0648625 15.1262491,73.5946365 C14.1808748,67.7420643 18.018851,54.6985174 30.3660647,64.0072507 C41.409913,72.3328634 40.5470852,86.6268631 40.2412289,89.556197 C67.0601415,104.971773 109.539422,129.373019 114.743325,132.268392 C113.019408,121.365245 117.423913,116.093489 123.086601,117.797622 C140.290154,122.973592 139.32827,146.726971 139.32827,146.726971 C146.22481,152.07884 166.442612,151.231562 172.226947,148.444167 C197.820696,136.113796 211.63463,126.549051 213.087448,120.86367 C215.054661,113.165896 213.637468,98.9015034 208.854118,88.6453518 C204.070767,78.3883294 176.149208,61.6665702 171.810739,57.8760261 C171.810739,57.8760261 155.902732,42.3794669 145.891149,33.7961008 C135.879565,25.2118638 99.5035098,8.71215583 89.9368087,7.15170213 C80.3701076,5.59037764 68.5781276,6.14768253 65.6863945,5.36745568 C62.7937925,4.58722883 57.8992215,2.69239219 52.670989,0.685223783 C30.0880134,3.91846295 3.9468507,26.6608566 2.94586618,29.5597128 C1.61035123,37.2513911 2.44450501,47.5632732 2.44450501,47.5632732 C2.44450501,47.5632732 0.887417965,48.7344843 0.386925702,49.3475197 C-0.11356656,49.9605551 -0.280397315,53.9740211 0.831807714,60.1052457" id="Fill-10"></path>
                        </g>
                        <path d="M114.242833,111.710024 C114.823265,111.710024 127.437234,116.503717 127.437234,116.503717 L131.476798,122.305784 C138.667898,129.179791 140.755889,141.051256 139.32827,146.912536 C134.154779,149.379481 128.677169,149.207936 128.677169,149.207936 L128.677169,149.204453 C129.767651,149.234059 130.833804,149.049452 131.838264,148.614929 C137.051725,146.361327 138.632273,138.388384 135.368646,130.806425 C134.156517,127.990294 132.440419,125.64613 130.50188,123.903681 L114.743325,132.453957 L112.524998,130.524289 L108.032732,117.172483 C108.032732,117.172483 113.662401,111.710024 114.242833,111.710024" id="Fill-13" fill="#2D313F"></path>
                        <path d="M116.490182,138.967633 C119.753809,146.549591 126.625151,150.868704 131.838612,148.615103 C137.052073,146.361501 138.631752,138.388558 135.368994,130.806599 C132.105367,123.22464 125.234026,118.905527 120.020564,121.159129 C114.807103,123.41273 113.226556,131.385674 116.490182,138.967633" id="Fill-15" fill="#5A5C75"></path>
                        <path d="M118.75239,137.989737 C121.055871,143.341605 126.000839,146.348439 129.797976,144.707002 C133.595983,143.065565 134.806375,137.396729 132.502894,132.045732 C130.199413,126.693863 125.254445,123.687029 121.457307,125.328466 C117.66017,126.969903 116.448909,132.638739 118.75239,137.989737" id="Fill-17" fill="#2D313F"></path>
                        <path d="M121.604327,125.670251 C118.000957,127.228092 116.874849,132.688809 119.093177,137.843009 C121.311504,142.995467 126.049672,145.923059 129.650435,144.365218 C131.374353,143.619822 132.589958,141.960099 133.07481,139.689952 C133.570089,137.372783 133.245117,134.710781 132.161586,132.19333 C131.078055,129.67588 129.368908,127.61211 127.346954,126.382556 C126.343363,125.772133 125.324132,125.406402 124.337918,125.290587 C123.380379,125.179126 122.454121,125.303649 121.604327,125.670251 M118.411951,138.137335 C116.030268,132.606084 117.331027,126.706489 121.310635,124.985811 C123.259601,124.143758 125.54049,124.413702 127.732751,125.746009 C129.885041,127.054805 131.700194,129.239614 132.84368,131.898133 C133.988035,134.556651 134.328648,137.378878 133.802088,139.844952 C133.264233,142.358049 131.895699,144.205863 129.944996,145.048787 C128.966603,145.47199 127.916091,145.60435 126.851676,145.478957 C123.590656,145.097551 120.206251,142.307543 118.411951,138.137335" id="Fill-19" fill="#B3B7C4"></path>
                        <path d="M133.596417,138.75934 L127.819902,136.785261 L131.286854,143.734157 C130.845447,144.132978 130.353644,144.467361 129.798411,144.706828 C128.940796,145.077784 128.024096,145.199695 127.094362,145.123065 L125.035914,137.396555 L120.886868,141.491005 C120.052714,140.489597 119.321092,139.312291 118.752825,137.989562 C118.739791,137.960826 118.731102,137.93209 118.718068,137.903354 L123.599605,134.479412 L118.541679,128.202766 C119.193362,126.911386 120.161328,125.9004 121.426461,125.343966 L124.843885,130.75679 L125.497305,125.1611 C126.513061,125.456298 127.520128,125.982254 128.466371,126.710234 L127.872037,133.666966 L133.200194,134.04663 C133.639863,135.67936 133.760641,137.290319 133.596417,138.75934" id="Fill-21" fill="#B3B7C4"></path>
                        <path d="M133.610841,136.370592 L126.445808,135.491966 L129.827606,144.69185 C129.817179,144.697075 129.80849,144.7023 129.798063,144.706654 C129.578229,144.802441 129.35405,144.878199 129.127264,144.942638 L125.707234,135.637387 L119.772577,139.942568 C119.642241,139.732708 119.521462,139.513269 119.399815,139.29383 L125.372704,134.961655 L119.581417,126.670874 C119.752593,126.485396 119.934195,126.312109 120.126224,126.151884 L125.63077,134.031653 L126.616983,125.578905 C126.854195,125.688624 127.088801,125.812276 127.322538,125.945507 L126.298093,134.723059 L133.518737,135.608651 C133.556969,135.864663 133.588249,136.118063 133.610841,136.370592" id="Fill-23" fill="#3D4154"></path>
                        <path d="M124.083415,135.684323 C123.572495,134.497438 123.851416,133.231311 124.705554,132.862096 C125.1235,132.680972 125.612697,132.739315 126.083646,133.024934 C126.545037,133.306199 126.934309,133.774683 127.179342,134.34505 C127.425243,134.915416 127.498232,135.521485 127.385273,136.050925 C127.269708,136.589073 126.976886,136.986152 126.558071,137.166406 C126.347795,137.257839 126.122747,137.285704 125.894223,137.25958 C125.194751,137.176855 124.468342,136.578623 124.083415,135.684323" id="Fill-25" fill="#B3B7C4"></path>
                        <path d="M124.888634,135.335659 C124.643601,134.766163 124.777413,134.157482 125.187539,133.980712 C125.388257,133.893633 125.622863,133.921498 125.848779,134.059083 C126.070352,134.193184 126.258036,134.418718 126.375339,134.693017 C126.493511,134.966445 126.529136,135.257288 126.474395,135.511558 C126.418785,135.770183 126.278021,135.960886 126.077303,136.047094 C125.97564,136.091504 125.867896,136.105437 125.758413,136.091504 C125.422145,136.052318 125.073712,135.764958 124.888634,135.335659" id="Fill-27" fill="#3D4154"></path>
                        <path d="M18.2125311,81.8642574 C21.4761578,89.4462163 28.3474994,93.7653293 33.5609605,91.5125984 C38.7744216,89.2581259 40.3541003,81.2851828 37.0913426,73.7032239 C33.8277159,66.1212649 26.9563742,61.802152 21.7429132,64.0557537 C16.5294521,66.3093554 14.9489045,74.2822985 18.2125311,81.8642574" id="Fill-29" fill="#5A5C75"></path>
                        <path d="M20.4747388,80.8862744 C22.7782197,86.238143 27.7231875,89.244977 31.520325,87.6035399 C35.3174624,85.9621029 36.5287232,80.2932672 34.2252423,74.9422694 C31.9217615,69.5912716 26.9767936,66.5835668 23.1796562,68.2250038 C19.3825187,69.8664409 18.1712579,75.5352766 20.4747388,80.8862744" id="Fill-31" fill="#2D313F"></path>
                        <path d="M23.3266758,68.5668756 C19.7241742,70.1247169 18.5971977,75.5854341 20.8155253,80.7396335 C23.033853,85.8929622 27.7720202,88.8196837 31.372784,87.2618424 C33.0967018,86.5173179 34.3123071,84.8567234 34.797159,82.5865768 C35.2924378,80.2694075 34.9674654,77.6074059 33.8839344,75.0899552 C32.8004034,72.5725045 31.0912571,70.5087348 29.0693031,69.2791809 C28.0657119,68.6687579 27.0464802,68.3030265 26.0602672,68.1872116 C25.1027282,68.0757506 24.1764699,68.2002734 23.3266758,68.5668756 M20.1342998,81.0339602 C17.752617,75.5027091 19.0533755,69.6031144 23.0329841,67.8824355 C24.9819496,67.0403826 27.2628389,67.3103272 29.4550992,68.6426342 C31.6073898,69.9514299 33.4225431,72.1362393 34.5660289,74.7947578 C35.7103836,77.4532763 36.0509964,80.2755031 35.5244368,82.742448 C34.9865814,85.254674 33.6180479,87.102488 31.6673446,87.9454117 C30.6889517,88.3686151 29.6384393,88.5001042 28.5740243,88.3755814 C25.3130044,87.9941758 21.9285993,85.2041682 20.1342998,81.0339602" id="Fill-33" fill="#B3B7C4"></path>
                        <path d="M35.3187658,81.656313 L29.5422509,79.6822346 L33.0092026,86.6302592 C32.5677962,87.0290805 32.075993,87.3643342 31.5207594,87.6038012 C30.664014,87.9738865 29.7464448,88.0966677 28.8167109,88.0200383 L26.7582627,80.2935284 L22.6100855,84.387107 C21.7750629,83.3856998 21.0434405,82.2083932 20.4751732,80.8865356 C20.4621396,80.8577996 20.4534505,80.8281928 20.4404168,80.7994567 L25.3219542,77.3755148 L20.2640281,71.0988684 C20.9157107,69.8083593 21.8836766,68.7973734 23.1488098,68.2409393 L26.5671025,73.6537631 L27.219654,68.0580736 C28.23541,68.353271 29.2424769,68.8792275 30.1887201,69.6072071 L29.5943855,76.5639396 L34.9225428,76.9427327 C35.3622113,78.5763327 35.4829898,80.1872921 35.3187658,81.656313" id="Fill-35" fill="#B3B7C4"></path>
                        <path d="M35.3331897,79.2667812 L28.1681564,78.389026 L31.5499548,87.5889107 C31.5395279,87.5932646 31.5308388,87.5993602 31.5204119,87.6037141 C31.3005776,87.6986301 31.0763987,87.7743887 30.8496132,87.8388271 L27.4295827,78.5344477 L21.4949262,82.839628 C21.3645897,82.6297679 21.2438112,82.4103291 21.1221637,82.1908903 L27.0950523,77.8578448 L21.303766,69.5679345 C21.4749413,69.3815857 21.6565435,69.2091695 21.8485727,69.0489443 L27.3531186,76.928713 L28.3393317,68.4759652 C28.5765442,68.5856846 28.8111499,68.7084658 29.0448868,68.8425673 L28.0204417,77.6201194 L35.2410852,78.5048409 C35.2793173,78.7608529 35.310598,79.0142524 35.3331897,79.2667812" id="Fill-37" fill="#3D4154"></path>
                        <path d="M25.8057634,78.5805125 C25.2948442,77.3936272 25.5737644,76.1283709 26.4279031,75.7591565 C26.8458489,75.5780324 27.3350453,75.6363752 27.8059946,75.921994 C28.2673859,76.2032588 28.6566577,76.6717432 28.9025593,77.2421099 C29.1475919,77.8124767 29.2205804,78.417675 29.1076221,78.9471146 C28.992057,79.4861329 28.6992343,79.8832127 28.2804196,80.063466 C28.0701433,80.154028 27.8450956,80.182764 27.6165722,80.1557696 C26.9170995,80.0739154 26.1906906,79.4756835 25.8057634,78.5805125" id="Fill-39" fill="#B3B7C4"></path>
                        <path d="M26.6109825,78.232284 C26.3659498,77.6627881 26.4997619,77.0541066 26.9098876,76.8773365 C27.1106058,76.7902576 27.3452116,76.8181228 27.5711282,76.9557075 C27.7927003,77.089809 27.9803849,77.3153433 28.0976878,77.5896418 C28.2158596,77.8630695 28.2514849,78.153913 28.1967435,78.4081834 C28.1411333,78.6676784 28.0003698,78.8575104 27.7996516,78.9445893 C27.6979891,78.9881288 27.5902442,79.0011906 27.4807615,78.9889995 C27.1444933,78.9489433 26.7960603,78.6624537 26.6109825,78.232284" id="Fill-41" fill="#3D4154"></path>
                        <g id="Group-45" transform="translate(0.000000, 34.146245)" fill="#B3B7C4">
                            <path d="M15.3432159,40.9387467 C10.5798503,37.5339621 1.64397806,30.6225106 0.831547041,26.1449141 C-0.280657988,20.0136895 -0.113827233,16.0002235 0.38753394,15.3871881 C0.888026202,14.7732819 2.44511324,13.6029417 2.44511324,13.6029417 C2.44511324,13.6029417 1.90638893,6.93531109 2.38950299,0.322540207 C2.3903719,0.322540207 79.7025239,50.8100096 97.8071364,61.9308546 C115.911749,73.0508288 137.687507,86.8467373 142.442183,89.8570545 C143.110375,91.278182 144.528437,96.545584 147.36456,98.7190731 C150.201551,100.642646 159.629227,101.478603 168.890071,99.8902842 C183.908315,96.2947968 208.853857,78.6534846 210.77328,74.80721 C212.666635,71.0114412 211.709096,62.7250141 211.683029,62.5055753 C214.116846,71.3292792 214.588664,81.0281259 213.088057,86.9024678 C211.635239,92.5878485 197.820436,102.152594 172.227555,114.483835 C166.44322,117.271231 146.224549,118.117637 139.328009,112.76664 C139.328009,112.76664 140.289893,89.0132601 123.087209,83.8372909 C117.423653,82.133157 113.019147,87.4040422 114.743065,98.30719 C109.539162,95.4126877 67.0607498,71.0114412 40.2409682,55.5958654 C40.5468246,52.6665316 41.4096524,38.371661 30.3666729,30.0469192 C18.0185904,20.7381859 14.1806141,33.780862 15.1259884,39.6343049 C15.2024525,40.1045309 15.2737031,40.5312175 15.3432159,40.9387467" id="Fill-43"></path>
                        </g>
                        <path d="M147.949162,87.3810534 C174.480466,75.0071432 170.642489,61.13983 170.642489,61.13983 C170.642489,61.13983 200.834511,83.1411822 204.848876,104.977085 C200.176746,108.785915 183.073987,120.993505 170.835387,124.562868 C170.835387,124.562868 117.524272,100.023167 114.242399,93.9032622 C114.242399,93.9032622 121.417859,99.7558344 147.949162,87.3810534" id="Fill-46" fill="#F0F1F3"></path>
                        <path d="M206.62267,108.480268 C193.502126,121.271286 170.835735,130.190777 170.835735,130.190777 L170.835735,124.562868 C183.073466,120.993505 200.177094,108.785915 204.849224,104.977085 L206.62267,108.480268 Z" id="Fill-48" fill="#3D4154"></path>
                        <path d="M145.472681,130.731276 C143.859115,128.270426 142.940677,125.064182 142.442792,124.00269 C152.120713,127.514582 170.835301,124.563478 170.835301,124.563478 L170.835301,130.190516 C157.628735,133.979318 145.481371,130.733017 145.472681,130.731276" id="Fill-50" fill="#73758E"></path>
                        <path d="M204.849224,104.977172 C204.849224,104.977172 210.358983,99.9205006 209.108622,89.3952752 C210.014895,91.4181178 210.795176,93.582899 211.446859,95.8156017 C211.516372,96.1369228 212.640742,101.847556 206.62267,108.480355 L204.849224,104.977172 Z" id="Fill-52" fill="#73758E"></path>
                        <path d="M213.717756,107.97852 C213.717756,107.97852 213.749036,111.331928 210.967655,115.911407 C208.186274,120.491756 179.205512,137.77082 171.503493,140.000911 C163.801473,142.23013 146.336378,139.331274 145.112084,140.000911 C143.888658,140.669677 142.220351,142.675974 142.998894,143.345611 C143.777438,144.014377 159.259679,146.179158 171.767641,144.377496 C180.120475,141.145998 200.499025,130.747908 210.127419,121.494905 C214.081829,116.255368 213.908916,110.62746 213.717756,107.97852" id="Fill-54" fill="#73758E"></path>
                        <path d="M211.892957,114.23775 L211.892957,114.23775 C213.193716,111.63235 213.566478,109.595575 213.673354,108.616808 L213.757639,108.622904 C213.881024,110.910466 213.821938,114.704493 211.892957,118.625656 L211.892957,114.23775 Z" id="Fill-56" fill="#F0F1F3"></path>
                        <path d="M145.112431,140.000911 C145.833627,139.606443 152.199263,140.451979 158.881182,140.755014 L160.797129,145.07761 C151.652718,145.069773 143.556213,143.824545 142.998373,143.345611 C142.219829,142.675974 143.889006,140.670547 145.112431,140.000911" id="Fill-58" fill="#F0F1F3"></path>
                        <path d="M208.768183,118.187823 L210.127158,121.495079 C200.498765,130.748082 180.121083,141.146172 171.767381,144.37767 L171.503232,140.001085 C178.236417,138.052259 201.232125,124.600312 208.768183,118.187823" id="Fill-60" fill="#3D4154"></path>
                        <g id="Group-64" transform="translate(13.033653, 58.528334)" fill="#999FB0">
                            <path d="M16.498432,2.20866896 C33.0737626,12.3533596 29.7362786,29.4103725 29.7362786,29.4103725 L99.034472,69.3882907 C99.6036082,63.3615608 101.626431,53.5181631 111.72143,57.2808419 C125.181717,62.2974567 127.184555,74.5607768 127.963099,79.3544696 C128.741642,84.1481625 129.965068,84.8169284 129.965068,84.8169284 C130.743611,85.4865651 146.225853,87.6504755 158.733815,85.849684 C167.087517,82.6181864 187.465199,72.2192254 197.093592,62.9662226 C199.111202,60.2937715 200.051363,57.5211797 200.465833,55.0934202 L200.905501,54.842633 C200.879434,57.7545511 200.597907,60.3904291 200.053969,62.5203787 C198.601152,68.2066302 184.787218,77.7705046 159.193468,90.1017462 C153.409133,92.8891415 133.191331,93.7355483 126.293922,88.3845505 C126.293922,88.3845505 127.255806,64.631171 110.053122,59.4552018 C104.389565,57.7510679 99.9859287,63.0219531 101.709846,73.9251009 C96.5059434,71.0305986 54.0266626,46.6293521 27.20775,31.2137763 C27.5136063,28.2844425 28.3755652,13.9895719 17.3325858,5.66483009 C4.98537215,-3.64390322 1.14739589,9.39877287 2.09277016,15.2522158 C2.16836535,15.7224418 2.23961598,16.1491284 2.3091288,16.5566576 C1.70523623,16.1238755 1.03269975,15.6344922 0.31845558,15.1015694 C-0.156838287,-1.26664953 10.4699332,-1.4808636 16.498432,2.20866896" id="Fill-62"></path>
                        </g>
                        <path d="M112.068385,127.916973 L42.7701919,87.9381841 C42.7701919,87.9381841 43.0221759,86.6389671 43.0430297,84.5508153 L112.524563,124.562694 L112.524563,124.564436 C112.308205,125.735647 112.165703,126.882476 112.068385,127.916973" id="Fill-65" fill="#DCDFE5"></path>
                        <path d="M2.27002784,44.582737 C2.17097208,42.0234884 2.11362401,38.2381691 2.38906854,34.4693948 C2.38906854,34.4693948 4.6143475,37.8828872 6.4494858,46.4113937 C5.58144453,46.6290909 3.89923443,45.7017007 2.27002784,44.582737" id="Fill-67" fill="#C86861"></path>
                        <path d="M82.2017703,6.48781267 C82.1383398,6.48345873 82.0749094,6.47910478 82.011479,6.47475084 C82.0749094,6.47910478 82.1383398,6.48345873 82.2017703,6.48781267" id="Fill-69" fill="#F0F1F3"></path>
                        <path d="M77.4922771,6.23397771 L77.4922771,6.23397771 C77.4940149,6.23397771 77.4957528,6.23397771 77.4974906,6.23397771 C77.4957528,6.23397771 77.4940149,6.23397771 77.4922771,6.23397771" id="Fill-71" fill="#F0F1F3"></path>
                        <path d="M145.890975,33.9814917 C146.302838,34.3341612 146.726866,34.7025049 147.156977,35.0760734 L145.946585,37.0475394 L144.234832,38.7638644 C133.194459,48.9555776 102.930318,63.4106733 97.722939,65.3081223 C97.722939,65.3081223 86.994505,45.047477 41.0482726,32.5185664 C72.6435845,9.59591948 89.9366349,7.33709308 89.9366349,7.33709308 C99.503336,8.89754678 135.879392,25.3972548 145.890975,33.9814917" id="Fill-73" fill="#3D4154"></path>
                        <path d="M83.810123,6.61033267 C83.7501682,6.60597873 83.6910823,6.5998832 83.6311275,6.59552926 C83.6910823,6.5998832 83.7501682,6.60597873 83.810123,6.61033267" id="Fill-75" fill="#F0F1F3"></path>
                        <path d="M88.5505494,7.12906162 C88.4697407,7.11774136 88.3889321,7.10555032 88.3081235,7.09510085 C88.3889321,7.10555032 88.4697407,7.11774136 88.5505494,7.12906162" id="Fill-77" fill="#F0F1F3"></path>
                        <path d="M85.2908329,6.74338921 C85.2734547,6.74164764 85.2560765,6.74077685 85.2395672,6.73903527 C85.2560765,6.74077685 85.2734547,6.74164764 85.2908329,6.74338921" id="Fill-79" fill="#F0F1F3"></path>
                        <path d="M86.9553172,6.92320712 C86.870164,6.91362844 86.7841419,6.90404976 86.6989887,6.8936003 C86.7841419,6.90404976 86.870164,6.91275765 86.9553172,6.92320712" id="Fill-81" fill="#F0F1F3"></path>
                        <path d="M19.1310561,31.0268179 C24.1368476,26.8461604 46.3296825,11.5176635 65.6863945,5.55363034 C68.5781276,6.3338572 80.3701076,5.77568151 89.9368087,7.337006 C89.9368087,7.337006 72.6437583,9.5958324 41.0484464,32.5184793 C37.4859147,34.3715181 22.3017093,31.8627753 19.1310561,31.0268179" id="Fill-83" fill="#2D313F"></path>
                        <path d="M52.6706414,0.871137212 C57.8988739,2.87743483 62.793445,4.77314226 65.686047,5.55336911 C46.3302038,11.5174023 24.137369,26.84677 19.1307085,31.0265567 C19.1307085,31.0265567 13.4462981,28.6806514 7.27008457,25.0851641 C15.7662883,17.4309297 35.2698462,3.36246424 52.6706414,0.871137212" id="Fill-85" fill="#F0F1F3"></path>
                        <path d="M161.131312,127.013007 C161.131312,127.013007 158.016269,127.34739 154.790874,127.180199 L154.790874,130.524899 C154.790874,130.524899 158.961643,129.353688 161.131312,127.013007" id="Fill-87" fill="#F0F1F3"></path>
                        <path d="M153.566927,127.013007 C153.566927,127.013007 149.125927,126.656855 147.00318,126.527978 L147.00318,129.872678 C147.00318,129.872678 151.397259,129.353688 153.566927,127.013007" id="Fill-89" fill="#F0F1F3"></path>
                        <path d="M170.835648,124.56313 L170.835648,130.190168 C168.471344,130.868512 166.143533,131.31871 163.910434,131.604329 L170.835648,124.56313 Z" id="Fill-91" fill="#5A5C75"></path>
                        <path d="M206.62267,108.480268 L204.849224,104.977085 L209.135558,105.156467 C208.481269,106.222313 207.660148,107.336923 206.62267,108.480268" id="Fill-93" fill="#5A5C75"></path>
                        <path d="M209.855189,95.9818353 C209.855189,95.9818353 209.646651,98.2093133 208.854205,100.466398 C210.355682,99.5468451 210.856174,98.8989781 210.856174,98.8989781 L209.855189,95.9818353 Z" id="Fill-95" fill="#F0F1F3"></path>
                        <path d="M134.767013,76.9299321 C142.609796,75.3407424 151.36928,71.07736 158.377909,65.4747042 C163.835534,61.1129226 165.846192,58.0782233 166.470939,56.9444562 C169.002074,59.4775811 170.642576,61.1399171 170.642576,61.1399171 C170.642576,61.1399171 174.480553,75.0072302 147.949249,87.3811405 C121.417946,99.7559215 114.242486,93.9033493 114.242486,93.9033493 C114.242486,93.9033493 113.802817,93.0665212 113.062506,91.681096 C117.11684,83.5383491 127.277876,78.4468464 134.767013,76.9299321" id="Fill-97" fill="#5A5C75"></path>
                        <path d="M129.78138,48.9468697 C133.495102,46.7176501 136.982039,44.4544698 139.912004,42.2835931 L166.471112,56.9441949 C165.845497,58.0779621 163.834839,61.1126614 158.378083,65.474443 C155.984235,67.388437 153.384456,69.1404642 150.688228,70.6878561 C146.005671,67.4102067 136.874294,64.5801428 131.596533,66.4784626 C132.985921,57.6930734 131.226378,51.9458667 129.78138,48.9468697" id="Fill-99" fill="#64667D"></path>
                        <path d="M132.569713,47.2375982 L132.570582,47.2375982 C132.543646,47.255014 132.514971,47.2724297 132.487166,47.2889747 C132.514971,47.2724297 132.542777,47.255014 132.569713,47.2375982" id="Fill-101" fill="#5A5C75"></path>
                        <path d="M129.78138,48.9464343 L129.78138,48.9464343 C131.226378,51.9463021 132.985921,57.692638 131.596533,66.4780272 L117.079651,74.3377677 C117.079651,74.3377677 112.574352,71.1602591 109.070037,71.8290249 C108.855416,68.8143538 108.438339,64.5379095 108.032558,60.6367752 C114.376471,57.5454747 122.494699,53.3195361 129.78138,48.9464343" id="Fill-103" fill="#5A5C75"></path>
                        <path d="M150.685274,70.6864628 C145.488322,73.6715272 139.930772,75.883331 134.766839,76.9300192 C132.206161,77.4481386 129.335282,78.3946861 126.500897,79.7278639 L117.079304,74.3376807 L131.596186,66.4779401 C136.873077,64.5804911 146.001848,67.4088134 150.685274,70.6864628" id="Fill-105" fill="#3D4154"></path>
                        <path d="M137.00715,44.3420509 C138.021168,43.6497738 138.996955,42.9618505 139.911917,42.283506 L166.471025,56.9441079 C166.080016,57.65293 165.148544,59.1045351 163.171773,61.1578553 C163.171773,61.1578553 159.271236,57.322901 137.00715,44.3420509" id="Fill-107" fill="#73758E"></path>
                        <path d="M102.507854,72.7970809 L109.004695,70.9658119 C109.027287,71.2601385 109.050747,71.555336 109.069863,71.8296345 C112.574178,71.1608686 117.079477,74.3383773 117.079477,74.3383773 L126.50107,79.7276898 C122.699588,81.5162902 118.97457,84.0137127 116.158432,87.1799011 L108.032385,82.4489051 L108.032385,82.4489051 C106.272841,79.2818459 104.337778,75.8727073 102.507854,72.7970809 Z" id="Fill-109" fill="#73758E"></path>
                        <path d="M126.500897,79.7281252 L126.500897,79.7281252 C122.699415,81.5167256 118.974397,84.0141481 116.158259,87.1794658 L108.03308,82.4493405 L119.725135,75.851373 L126.500897,79.7281252 Z" id="Fill-111" fill="#64667D"></path>
                        <path d="M107.927507,82.2609888 C107.962263,82.3228148 107.998758,82.388124 108.032645,82.4490792 L108.032645,82.4490792 L116.158693,87.1792045 C116.200401,87.1321819 116.247322,87.0877717 116.290768,87.0407491 C115.009125,88.4566518 113.899527,89.9996897 113.061897,91.6811831 C113.082751,91.7194978 113.100129,91.7534586 113.120983,91.7909025 C111.980973,89.6592113 110.080666,86.1325163 107.927507,82.2609888" id="Fill-113" fill="#2D313F"></path>
                        <path d="M106.770119,80.1906882 C106.719722,80.1018678 106.670194,80.0139181 106.620666,79.9250976 C106.671063,80.0139181 106.719722,80.1018678 106.770119,80.1906882" id="Fill-115" fill="#2D313F"></path>
                        <path d="M102.507854,72.7970809 L102.507854,72.7970809 C102.548692,72.8667441 102.591269,72.9398903 102.632977,73.0095534 C100.806527,69.9339271 99.0765273,67.1726555 97.7236341,65.3074256 C99.2902792,64.7370589 103.131731,63.0259587 108.032385,60.6373848 C108.438166,64.5385191 108.855242,68.8149633 109.069863,71.8296345 C109.050747,71.555336 109.027287,71.2601385 109.004695,70.9658119 L102.507854,72.7970809 Z" id="Fill-117" fill="#2D313F"></path>
                        <path d="M93.1734122,84.5922649 L101.300329,80.5291639 C104.730786,87.3282836 106.305252,92.6505453 106.305252,92.6505453 L93.1734122,84.5922649 Z" id="Fill-119" fill="#2D313F"></path>
                        <path d="M79.5356063,61.1400912 L80.2211764,55.6375762 C82.6523871,57.4113732 84.9393587,59.2635412 87.0447281,61.1400912 C93.4929105,66.8907811 98.1693851,74.3247059 101.300068,80.5290768 L93.1731515,84.5921778 L73.9528584,72.7973422 L76.0834262,63.3719232 C76.9505985,62.494168 79.5356063,61.1400912 79.5356063,61.1400912" id="Fill-121" fill="#3D4154"></path>
                        <path d="M81.8691515,56.8707003 C81.3278204,56.4570756 80.780407,56.0451925 80.2234356,55.6394048 C80.780407,56.0460633 81.3278204,56.4570756 81.8691515,56.8707003" id="Fill-123" fill="#5A5C75"></path>
                        <path d="M79.5356063,61.1400912 C79.5356063,61.1400912 76.9505985,62.494168 76.0834262,63.3719232 L75.8401313,64.4508306 L78.1601215,54.1824879 C77.69091,53.8594253 77.2095337,53.5450705 76.7307642,53.2289741 L76.733371,53.2193954 C77.9237779,54.0057178 79.0889865,54.8120683 80.2211764,55.6375762 L79.5356063,61.1400912 Z" id="Fill-125" fill="#5A5C75"></path>
                        <path d="M75.1240624,52.1817634 L70.9698029,70.9664214 L44.0639992,54.4545224 L51.4540803,49.7557455 L51.4540803,42.2869891 C59.7382699,43.945842 67.8903852,47.6240543 75.1240624,52.1817634" id="Fill-127" fill="#3D4154"></path>
                        <path d="M52.2226313,42.4520907 C52.0914259,42.4233547 51.9593515,42.3946187 51.8272772,42.3667534 C51.9593515,42.3946187 52.0914259,42.4233547 52.2226313,42.4520907" id="Fill-129" fill="#5A5C75"></path>
                        <path d="M51.454254,42.2935201 L51.454254,49.7561809 L44.064173,54.4549578 L35.3168542,49.0865442 C35.3168542,49.0865442 33.9822082,44.0708002 33.8145085,42.2308233 C39.5693006,40.9437973 45.5447959,41.1083764 51.454254,42.2935201" id="Fill-131" fill="#5A5C75"></path>
                        <path d="M131.877713,56.4872049 L131.878582,56.4863341 C131.878582,56.4863341 143.110115,64.4714683 147.003701,61.13983 C150.891205,57.8134164 160.015631,64.072647 160.044305,64.0918043 C159.525566,64.5376483 158.976414,64.996554 158.378604,65.4746171 C155.984757,67.3886111 153.384109,69.1406384 150.68788,70.6880302 C146.005323,67.40951 136.873946,64.5794461 131.596186,66.4786367 C132.218326,62.5461541 132.20703,59.2275776 131.877713,56.4872049" id="Fill-133" fill="#73758E"></path>
                        <path d="M49.3668711,41.9210837 C50.0628682,42.0316738 50.7597341,42.1544551 51.4539934,42.2937813 L44.0639123,54.455219 L42.3174028,53.3832779 L49.3668711,41.9210837 Z" id="Fill-135" fill="#2D313F"></path>
                        <path d="M136.101746,51.3173312 C136.101746,51.3173312 139.606061,52.9901167 139.606061,55.637315 C139.606061,58.2845132 136.101746,55.1070045 136.101746,55.1070045 L136.101746,51.3173312 Z" id="Fill-137" fill="#73758E"></path>
                        <path d="M145.946585,37.047104 C153.427033,43.88628 164.412664,54.8660572 168.764166,59.2452546 L166.471112,60.637646 L144.326068,38.6798332 C144.925616,38.1216575 145.471291,37.5756729 145.946585,37.047104" id="Fill-139" fill="#5A5C75"></path>
                        <path d="M73.9530322,72.7970809 L68.9993753,69.7571569 L73.7245088,51.3173312 C75.2433638,52.2351427 76.7231178,53.1930105 78.1602953,54.1822267 L73.9530322,72.7970809 Z" id="Fill-141" fill="#2D313F"></path>
                        <path d="M122.153391,82.1325475 C121.489544,82.5609756 120.840468,83.012915 120.20877,83.487495 C115.579217,81.9444571 112.026243,85.7802822 110.763717,87.4191069 C110.410939,86.7703691 110.039915,86.0920246 109.65325,85.3866856 C113.300934,79.5079897 119.36419,80.5294251 122.153391,82.1325475" id="Fill-143" fill="#73758E"></path>
                        <path d="M129.233619,52.4530141 C129.233619,52.4530141 123.099113,54.285154 117.381684,59.3052519 C116.851649,60.3684852 117.699705,61.2009594 118.228872,61.305454 C118.758038,61.4099487 128.37948,55.9936418 129.233619,54.8485544 C130.087758,53.7025962 129.827954,52.2544742 129.233619,52.4530141" id="Fill-145" fill="#B3B7C4"></path>
                        <path d="M76.7833333,84.9647013 C74.9568841,83.9850638 72.9566529,82.8861282 70.817396,81.6278382 C69.6695657,80.952106 69.607873,82.630987 70.4420268,83.3833486 C71.2770495,84.1357102 75.4478184,86.5608573 76.4496718,86.8116445 C77.4506563,87.0624317 77.5332028,85.3670057 76.7833333,84.9647013" id="Fill-147" fill="#73758E"></path>
                        <path d="M41.3285831,62.1307878 C39.5551374,61.0597174 37.6122542,59.8597703 35.5399034,58.4943733 C34.4285673,57.7611691 34.2808526,59.4348253 35.0759054,60.2289848 C35.8709582,61.0231443 39.9148662,63.6564099 40.9019482,63.9585736 C41.8890301,64.2598666 42.0567298,62.5705361 41.3285831,62.1307878" id="Fill-149" fill="#73758E"></path>
                        <path d="M103.392925,89.2995755 C103.392925,89.2995755 103.683141,83.3189973 99.1726288,83.6882118 C94.662116,84.0574263 91.2412167,88.488871 90.9909705,89.6592113 C90.7407244,90.8304224 92.2422012,91.9171669 93.994793,92.0007626 C95.7465159,92.0843584 101.444829,91.1970245 103.392925,89.2995755" id="Fill-151" fill="#B3B7C4"></path>
                        <path d="M103.164663,87.0438839 C103.440107,88.2412187 103.393186,89.2992272 103.393186,89.2992272 C101.44509,91.197547 95.7459077,92.0840101 93.9941848,92.0004143 C92.2424619,91.9168186 90.7409851,90.830074 90.9912312,89.658863 C95.5321558,90.4086122 100.508404,88.3788033 103.164663,87.0438839" id="Fill-153" fill="#73758E"></path>
                    </g>
                </g>
            </g>
        </g>
    </g>
</svg>